<svg xmlns="http://www.w3.org/2000/svg" width="213.333" height="213.333" preserveAspectRatio="xMidYMid meet" version="1.0" viewBox="0 0 160 160"><metadata>Created by potrace 1.14, written by Peter Selinger 2001-2017</metadata><g fill="#000" stroke="none"><path d="M750 1450 l0 -50 -150 0 -150 0 0 -50 0 -50 -100 0 -100 0 0 -50 0 -50 -50 0 -50 0 0 -350 0 -350 50 0 50 0 0 -50 0 -50 50 0 50 0 0 100 0 100 50 0 50 0 0 -200 0 -200 50 0 50 0 0 -50 0 -50 150 0 150 0 0 50 0 50 50 0 50 0 0 150 0 150 50 0 50 0 0 50 0 50 50 0 50 0 0 -150 0 -150 100 0 100 0 0 50 0 50 50 0 50 0 0 350 0 350 -50 0 -50 0 0 50 0 50 -50 0 -50 0 0 50 0 50 -50 0 -50 0 0 50 0 50 -50 0 -50 0 0 50 0 50 -150 0 -150 0 0 -50z" transform="translate(0.000000,160.000000) scale(0.100000,-0.100000)"/></g></svg>